<?xml version="1.0" standalone="no"?>
<!DOCTYPE svg PUBLIC "-//W3C//DTD SVG 20010904//EN"
 "http://www.w3.org/TR/2001/REC-SVG-20010904/DTD/svg10.dtd">
<svg version="1.0" xmlns="http://www.w3.org/2000/svg"
 width="8000.000000pt" height="8000.000000pt" viewBox="0 0 8000.000000 8000.000000"
 preserveAspectRatio="xMidYMid meet">

<g transform="translate(0.000000,8000.000000) scale(0.100000,-0.100000)"
fill="#000000" stroke="none">
<path d="M23170 70974 c-1649 -57 -2995 -557 -4139 -1538 -1213 -1041 -2141
-2654 -2497 -4343 -175 -834 -216 -1739 -113 -2533 5 -41 14 -109 19 -150 6
-41 24 -152 40 -247 234 -1340 824 -2626 1728 -3763 660 -831 1477 -1584 2346
-2161 l208 -139 -3583 -3 -3584 -2 -127 -22 c-238 -42 -465 -110 -662 -200
-99 -46 -117 -55 -226 -116 -208 -116 -446 -308 -617 -499 -400 -444 -623
-975 -663 -1581 -17 -244 -8 -6230 9 -6352 19 -140 60 -329 98 -455 237 -785
845 -1415 1624 -1683 217 -75 437 -120 673 -137 76 -5 140 -11 142 -13 2 -2 4
-7309 4 -16238 0 -10654 4 -16270 10 -16339 60 -630 318 -1173 767 -1611 396
-387 887 -624 1463 -706 120 -17 1104 -18 23325 -18 22216 0 23205 1 23325 18
582 83 1065 316 1464 706 211 208 354 399 485 651 162 313 253 630 280 979 8
95 11 4936 11 16347 l0 16212 63 6 c223 18 316 29 422 51 882 178 1603 796
1913 1641 90 245 136 478 153 774 6 122 9 1216 6 3205 -3 2810 -4 3028 -20
3135 -51 333 -133 591 -278 869 -131 251 -293 467 -503 668 -273 263 -605 464
-961 581 -180 60 -293 86 -480 112 -134 18 -237 19 -2375 21 -1229 1 -2757 5
-3394 8 l-1159 6 154 102 c886 584 1736 1368 2402 2216 992 1262 1597 2693
1766 4177 37 327 46 488 45 880 0 465 -25 795 -89 1200 -134 836 -387 1618
-766 2370 -112 222 -136 266 -246 460 -777 1362 -1887 2379 -3205 2939 -452
192 -1048 357 -1553 430 -140 20 -172 24 -275 36 -30 3 -71 8 -90 10 -216 25
-516 40 -810 40 -163 0 -620 -14 -629 -19 -3 -2 -57 -7 -120 -11 -62 -4 -121
-8 -130 -10 -9 -1 -52 -6 -96 -9 -44 -4 -153 -16 -243 -27 -1128 -135 -2067
-396 -3172 -882 -245 -107 -842 -407 -1104 -552 -1968 -1096 -3961 -2765
-5766 -4830 -775 -886 -1567 -1918 -2180 -2840 -51 -77 -96 -143 -99 -147 -4
-5 -65 17 -135 48 -354 153 -800 268 -1161 299 -38 4 -83 9 -100 12 -16 3
-496 8 -1065 10 -1056 5 -1321 -1 -1567 -33 -362 -47 -739 -150 -1062 -291
-68 -29 -127 -50 -130 -46 -3 5 -19 28 -35 53 -140 216 -505 736 -749 1070
-1875 2555 -4163 4761 -6427 6197 -1584 1004 -3105 1621 -4585 1858 -119 19
-489 71 -560 79 -95 10 -250 26 -300 31 -27 2 -77 6 -110 9 -222 21 -783 38
-1005 30z m535 -734 c288 -11 312 -13 605 -41 472 -45 971 -127 1377 -224
1694 -408 3494 -1362 5308 -2816 709 -568 1284 -1089 1986 -1796 190 -191 418
-426 506 -520 834 -891 1639 -1878 2345 -2873 172 -243 466 -672 473 -692 4
-9 -12 -27 -42 -48 -72 -52 -216 -173 -327 -274 -321 -295 -638 -720 -846
-1136 -23 -47 -44 -87 -46 -89 -2 -2 -41 27 -86 64 -1935 1590 -3622 2572
-5483 3191 -1738 578 -3291 719 -4521 410 -602 -152 -1113 -400 -1569 -765
-146 -116 -421 -389 -530 -526 -359 -449 -585 -983 -676 -1595 -27 -177 -37
-582 -20 -771 110 -1206 811 -2281 2001 -3064 274 -180 582 -352 884 -491
l148 -69 -1445 -3 -1446 -2 -128 59 c-791 362 -1546 857 -2227 1460 -77 69
-253 235 -389 370 -766 757 -1311 1501 -1727 2354 -391 801 -611 1571 -704
2462 -35 326 -40 874 -12 1212 90 1075 399 2077 944 3053 645 1156 1528 2032
2579 2559 485 242 986 406 1553 506 308 54 653 90 920 94 68 1 126 4 128 5 7
8 223 6 467 -4z m32270 0 c941 -38 1696 -217 2431 -574 559 -272 1000 -587
1468 -1046 339 -333 600 -649 863 -1045 740 -1113 1170 -2368 1254 -3658 22
-346 3 -963 -41 -1299 -143 -1099 -520 -2116 -1139 -3078 -634 -984 -1548
-1920 -2556 -2617 -400 -277 -905 -563 -1345 -763 l-115 -52 -1460 -4 c-1373
-4 -1458 -3 -1425 13 566 271 761 379 1095 604 292 197 528 392 775 639 508
507 849 1070 1034 1708 94 322 130 583 131 937 0 417 -28 633 -131 995 -159
557 -436 1012 -871 1430 -1029 989 -2585 1333 -4543 1005 -824 -138 -1688
-387 -2580 -745 -1473 -590 -2821 -1410 -4418 -2687 -189 -151 -345 -273 -347
-271 -1 1 -28 54 -59 116 -142 284 -317 543 -542 802 -124 144 -373 383 -519
499 -71 57 -134 107 -139 112 -10 9 59 116 257 404 1523 2209 3370 4194 5297
5691 1506 1171 3090 2037 4517 2470 843 255 1753 397 2718 422 66 2 241 -2
390 -8z m-29250 -7430 c1048 -65 2256 -370 3465 -875 1152 -480 2315 -1169
3508 -2077 311 -237 978 -770 1080 -863 10 -9 9 -28 -7 -101 -23 -105 -57
-319 -72 -459 -8 -65 -13 -494 -16 -1217 l-4 -1118 -3403 0 -3402 0 -164 30
c-1235 226 -2279 602 -3078 1110 -649 413 -1156 949 -1445 1526 -146 292 -248
632 -289 964 -16 136 -16 486 0 620 61 490 238 927 522 1285 88 112 315 336
440 435 437 348 972 576 1594 680 161 27 416 56 551 63 150 8 575 6 720 -3z
m26415 0 c1009 -70 1777 -388 2370 -980 392 -392 645 -946 701 -1533 14 -156
7 -498 -15 -642 -72 -480 -248 -913 -537 -1317 -573 -799 -1515 -1418 -2804
-1841 -425 -140 -745 -222 -1335 -345 l-225 -47 -2635 -3 c-1449 -2 -2996 0
-3437 4 l-802 6 -4 1142 c-4 1241 -3 1210 -63 1531 -15 77 -29 154 -31 171 -5
29 5 38 184 186 1700 1403 3101 2276 4624 2882 1133 450 2245 721 3219 785
183 12 623 12 790 1z m-12300 -1543 c570 -74 1076 -272 1515 -592 169 -124
273 -214 414 -361 559 -582 864 -1278 911 -2079 5 -93 10 -610 10 -1147 l0
-978 -4140 0 -4140 0 1 1058 c2 1297 4 1329 124 1768 179 653 593 1264 1140
1682 498 381 1039 593 1676 656 104 11 379 13 1244 12 989 -2 1125 -4 1245
-19z m-10382 -5897 l3952 0 0 -4795 0 -4795 -10382 2 -10383 3 -110 22 c-601
122 -1078 489 -1336 1028 -93 193 -150 411 -169 644 -13 156 -13 6036 0 6192
30 364 150 683 365 967 269 357 649 599 1099 700 l121 27 4195 5 c2307 3 5208
4 6445 3 1238 -2 4029 -3 6203 -3z m34722 -11 c814 -91 1471 -731 1602 -1559
19 -126 19 -6324 0 -6450 -75 -474 -325 -897 -702 -1189 -226 -174 -456 -279
-763 -348 l-122 -28 -10387 -2 -10388 -3 0 4795 0 4795 5278 2 c9750 5 15367
0 15482 -13z m-21490 -11299 l0 -11310 10275 0 10275 0 0 -4275 0 -4275
-10275 0 -10275 0 0 -6670 0 -6670 -4275 0 -4275 0 0 6670 0 6670 -10280 0
-10280 0 0 4275 0 4275 10280 0 10280 0 0 11310 0 11310 4275 0 4275 0 0
-11310z m-9280 -4800 l0 -5780 -9915 0 -9915 0 0 5780 0 5780 9915 0 9915 0 0
-5780z m29830 0 l0 -5780 -9910 0 -9910 0 0 5780 0 5780 9910 0 9910 0 0
-5780z m-29830 -22095 l0 -6305 -9055 0 c-6348 0 -9085 3 -9153 11 -282 31
-568 134 -810 291 -387 253 -681 685 -771 1134 -11 55 -23 115 -28 134 -4 19
-9 2511 -10 5538 l-3 5502 9915 0 9915 0 0 -6305z m29827 788 c-3 -5069 -4
-5524 -19 -5595 -84 -392 -229 -673 -483 -937 -302 -313 -652 -490 -1078 -546
-105 -13 -1087 -15 -9178 -15 l-9059 0 0 6305 0 6305 9910 0 9910 0 -3 -5517z"/>
</g>
</svg>
